<svg width="535" height="532" viewBox="0 0 535 532" fill="none" xmlns="http://www.w3.org/2000/svg">
<path d="M268 524.5L42 395.5V365.5L6 327V207.5H42V139L268 7L493 139V207.5H529V327L493 365.5V395.5L268 524.5Z" fill="white"/>
<path d="M529 327V207.5H493M529 327L493 365.5M529 327H493M6 327V207.5H42M6 327L42 365.5M6 327H42M42 365.5V395.5L268 524.5L493 395.5V365.5M42 365.5V327M493 365.5V327M42 327H493M42 207.5V139L268 7L493 139V207.5M42 207.5H493" stroke="#018749" stroke-width="12"/>
<path d="M198.5 450.115L267.5 489.5L336.195 450.115H198.5Z" fill="#018749" stroke="#018749" stroke-width="12"/>
<path d="M301.439 363.375C301.295 363.23 301.123 363.114 300.934 363.036C300.744 362.957 300.541 362.917 300.336 362.918H292.895C293.343 359.693 293.566 356.44 293.562 353.184C293.562 352.769 293.398 352.372 293.105 352.079C292.812 351.786 292.414 351.621 292 351.621H242C241.586 351.621 241.188 351.786 240.895 352.079C240.602 352.372 240.438 352.769 240.438 353.184C240.435 356.441 240.659 359.695 241.107 362.922H233.664C233.25 362.922 232.852 363.086 232.559 363.38C232.266 363.673 232.102 364.07 232.102 364.484C232.102 369.627 234.025 374.611 237.666 378.9C241.061 382.9 245.797 386.127 251.381 388.248C253.855 391.16 256.67 393.402 259.74 394.799C259.434 404.143 255.027 410.971 253.623 412.918H252.32C251.388 412.918 250.494 413.288 249.834 413.948C249.175 414.607 248.805 415.501 248.805 416.434V420.863C248.805 421.796 249.175 422.69 249.834 423.349C250.494 424.009 251.388 424.379 252.32 424.379H281.684C282.616 424.379 283.51 424.009 284.17 423.349C284.829 422.69 285.199 421.796 285.199 420.863V416.434C285.199 415.501 284.829 414.607 284.17 413.948C283.51 413.288 282.616 412.918 281.684 412.918H280.4C278.988 410.887 274.582 403.85 274.264 394.797C277.334 393.4 280.148 391.158 282.623 388.246C288.207 386.121 292.943 382.896 296.338 378.898C299.975 374.602 301.898 369.625 301.898 364.484C301.9 364.278 301.859 364.074 301.781 363.883C301.702 363.693 301.586 363.52 301.439 363.375ZM235.299 366.047H241.621C242.842 372.508 244.965 378.352 247.781 383.143C240.475 379.064 235.904 372.883 235.299 366.047ZM282.074 416.437V420.867C282.074 420.971 282.033 421.07 281.96 421.143C281.887 421.217 281.787 421.258 281.684 421.258H252.32C252.217 421.258 252.117 421.217 252.044 421.143C251.971 421.07 251.93 420.971 251.93 420.867V416.434C251.93 416.33 251.971 416.231 252.044 416.157C252.117 416.084 252.217 416.043 252.32 416.043H281.684C281.787 416.043 281.887 416.084 281.96 416.157C282.033 416.231 282.074 416.33 282.074 416.434V416.437ZM257.387 412.922C260.562 407.773 262.427 401.925 262.818 395.889C265.564 396.596 268.444 396.596 271.189 395.889C271.68 403.531 274.705 409.67 276.674 412.924L257.387 412.922ZM272.117 392.314C268.829 393.61 265.172 393.61 261.885 392.314C256.85 390.361 252.244 385.494 248.918 378.6C245.66 371.85 243.783 363.436 243.582 354.748H290.422C290.227 363.436 288.344 371.85 285.086 378.6C281.76 385.492 277.156 390.363 272.117 392.314ZM286.223 383.135C289.041 378.338 291.164 372.498 292.383 366.037H298.703C298.098 372.877 293.529 379.061 286.223 383.141V383.135Z" fill="#018749" stroke="#018749" stroke-width="1.5625"/>
<g clip-path="url(#clip0_16_325)">
<path d="M276.225 99.5151L293.515 74.7696L272.475 55.1497L243.092 65.7167L244.07 93.4089L276.225 99.5151Z" fill="#018749"/>
<path d="M265.023 149.655L280.846 166.136L308.485 154.337L312.999 129.917L285.562 126.539L265.023 149.655Z" fill="#018749"/>
<path d="M209.591 132.592L209.941 133.02C219.342 157.007 242.681 174 270 174C305.624 174 334.5 145.124 334.5 109.5C334.5 73.8776 305.624 45 270 45C234.378 45 205.5 73.8794 205.5 109.5C205.5 117.476 206.957 125.111 209.605 132.164L209.591 132.592ZM208.863 109.5C208.863 101.354 210.478 93.5823 213.383 86.4667L228.641 67.5362L232.595 61.1948C242.944 53.1629 255.919 48.363 270.002 48.363C270.341 48.363 270.674 48.3838 271.015 48.3875L277.838 50.9008L292.878 52.8199C302.508 56.7215 310.931 63.0018 317.406 70.9395L314.901 81.8449L324.782 109.711L331.095 111.31C330.126 144.188 303.106 170.635 270.002 170.635C253.52 170.635 238.553 164.069 227.545 153.428L239.412 143.236L228.087 114.046L210.369 107.943L209.959 120.959C209.25 117.248 208.863 113.419 208.863 109.5Z" fill="#018749"/>
</g>
<path d="M100.945 242.5V288H89.9763V242.5H100.945ZM128.101 242.5L110.476 265.562L100.164 276.844L98.1638 266.781L104.758 256.781L114.57 242.5H128.101ZM115.133 288L103.383 267.5L111.914 261.219L128.101 288H115.133ZM148.579 254.188V288H138.016V254.188H148.579ZM137.391 245.469C137.391 243.969 137.933 242.74 139.016 241.781C140.1 240.823 141.506 240.344 143.235 240.344C144.964 240.344 146.37 240.823 147.454 241.781C148.537 242.74 149.079 243.969 149.079 245.469C149.079 246.969 148.537 248.198 147.454 249.156C146.37 250.115 144.964 250.594 143.235 250.594C141.506 250.594 140.1 250.115 139.016 249.156C137.933 248.198 137.391 246.969 137.391 245.469ZM176.4 280.5C177.379 280.5 178.213 280.323 178.9 279.969C179.608 279.594 180.14 279.073 180.494 278.406C180.869 277.719 181.046 276.896 181.025 275.938H190.931C190.952 278.479 190.327 280.708 189.056 282.625C187.806 284.521 186.098 286 183.931 287.062C181.785 288.104 179.358 288.625 176.65 288.625C174.004 288.625 171.692 288.198 169.713 287.344C167.733 286.469 166.077 285.26 164.744 283.719C163.431 282.156 162.442 280.333 161.775 278.25C161.129 276.167 160.806 273.906 160.806 271.469V270.75C160.806 268.312 161.129 266.052 161.775 263.969C162.442 261.865 163.431 260.042 164.744 258.5C166.077 256.938 167.723 255.729 169.681 254.875C171.66 254 173.963 253.562 176.588 253.562C179.4 253.562 181.879 254.094 184.025 255.156C186.192 256.219 187.89 257.76 189.119 259.781C190.348 261.802 190.952 264.25 190.931 267.125H181.025C181.046 266.104 180.89 265.188 180.556 264.375C180.223 263.562 179.702 262.917 178.994 262.438C178.306 261.938 177.421 261.688 176.338 261.688C175.254 261.688 174.379 261.927 173.713 262.406C173.046 262.885 172.535 263.552 172.181 264.406C171.848 265.24 171.619 266.198 171.494 267.281C171.39 268.365 171.338 269.521 171.338 270.75V271.469C171.338 272.719 171.39 273.896 171.494 275C171.619 276.083 171.858 277.042 172.213 277.875C172.567 278.688 173.077 279.333 173.744 279.812C174.41 280.271 175.296 280.5 176.4 280.5ZM213.096 239.969V288H202.565V239.969H213.096ZM234.721 254.188L220.034 271.406L212.346 279.094L207.753 272.406L214.159 264.062L222.096 254.188H234.721ZM223.44 288L214.409 272.594L222.19 267.062L235.503 288H223.44ZM260.261 288.625C257.511 288.625 255.053 288.198 252.886 287.344C250.72 286.469 248.886 285.271 247.386 283.75C245.907 282.229 244.772 280.479 243.98 278.5C243.209 276.521 242.824 274.427 242.824 272.219V271.031C242.824 268.552 243.168 266.26 243.855 264.156C244.543 262.031 245.563 260.177 246.918 258.594C248.272 257.01 249.97 255.781 252.011 254.906C254.053 254.01 256.428 253.562 259.136 253.562C261.532 253.562 263.678 253.948 265.574 254.719C267.47 255.49 269.074 256.594 270.386 258.031C271.72 259.469 272.73 261.208 273.418 263.25C274.126 265.292 274.48 267.583 274.48 270.125V274.406H246.855V267.812H264.199V267C264.22 265.875 264.022 264.917 263.605 264.125C263.209 263.333 262.626 262.729 261.855 262.312C261.084 261.896 260.147 261.688 259.043 261.688C257.897 261.688 256.949 261.938 256.199 262.438C255.47 262.938 254.897 263.625 254.48 264.5C254.084 265.354 253.803 266.344 253.636 267.469C253.47 268.594 253.386 269.781 253.386 271.031V272.219C253.386 273.469 253.553 274.604 253.886 275.625C254.24 276.646 254.74 277.521 255.386 278.25C256.053 278.958 256.845 279.51 257.761 279.906C258.699 280.302 259.761 280.5 260.949 280.5C262.386 280.5 263.803 280.229 265.199 279.688C266.595 279.146 267.793 278.25 268.793 277L273.574 282.688C272.886 283.667 271.907 284.615 270.636 285.531C269.386 286.448 267.886 287.198 266.136 287.781C264.386 288.344 262.428 288.625 260.261 288.625ZM296.426 262.562V288H285.895V254.188H295.739L296.426 262.562ZM306.426 253.938L306.239 263.719C305.822 263.677 305.26 263.625 304.551 263.562C303.843 263.5 303.249 263.469 302.77 263.469C301.541 263.469 300.478 263.615 299.583 263.906C298.708 264.177 297.978 264.594 297.395 265.156C296.833 265.698 296.416 266.385 296.145 267.219C295.895 268.052 295.78 269.021 295.801 270.125L293.895 268.875C293.895 266.604 294.114 264.542 294.551 262.688C295.01 260.812 295.655 259.198 296.489 257.844C297.322 256.469 298.333 255.417 299.52 254.688C300.708 253.938 302.041 253.562 303.52 253.562C304.041 253.562 304.551 253.594 305.051 253.656C305.572 253.719 306.03 253.812 306.426 253.938ZM379.069 264.344V266.188C379.069 269.667 378.579 272.792 377.6 275.562C376.642 278.312 375.277 280.667 373.506 282.625C371.735 284.562 369.642 286.052 367.225 287.094C364.808 288.115 362.142 288.625 359.225 288.625C356.288 288.625 353.6 288.115 351.163 287.094C348.746 286.052 346.642 284.562 344.85 282.625C343.079 280.667 341.704 278.312 340.725 275.562C339.767 272.792 339.288 269.667 339.288 266.188V264.344C339.288 260.865 339.767 257.74 340.725 254.969C341.704 252.198 343.069 249.844 344.819 247.906C346.59 245.948 348.683 244.458 351.1 243.438C353.538 242.396 356.225 241.875 359.163 241.875C362.079 241.875 364.746 242.396 367.163 243.438C369.6 244.458 371.704 245.948 373.475 247.906C375.246 249.844 376.621 252.198 377.6 254.969C378.579 257.74 379.069 260.865 379.069 264.344ZM367.944 266.188V264.281C367.944 262.031 367.746 260.052 367.35 258.344C366.975 256.615 366.413 255.167 365.663 254C364.913 252.833 363.985 251.958 362.881 251.375C361.798 250.771 360.558 250.469 359.163 250.469C357.704 250.469 356.433 250.771 355.35 251.375C354.267 251.958 353.36 252.833 352.631 254C351.902 255.167 351.35 256.615 350.975 258.344C350.621 260.052 350.444 262.031 350.444 264.281V266.188C350.444 268.417 350.621 270.396 350.975 272.125C351.35 273.833 351.902 275.281 352.631 276.469C353.381 277.656 354.298 278.552 355.381 279.156C356.485 279.76 357.767 280.062 359.225 280.062C360.621 280.062 361.86 279.76 362.944 279.156C364.027 278.552 364.933 277.656 365.663 276.469C366.413 275.281 366.975 273.833 367.35 272.125C367.746 270.396 367.944 268.417 367.944 266.188ZM411.046 279.781V254.188H421.609V288H411.734L411.046 279.781ZM412.046 272.906L414.796 272.844C414.796 275.115 414.525 277.219 413.984 279.156C413.442 281.073 412.64 282.74 411.578 284.156C410.536 285.573 409.244 286.677 407.703 287.469C406.182 288.24 404.421 288.625 402.421 288.625C400.755 288.625 399.223 288.396 397.828 287.938C396.453 287.458 395.265 286.719 394.265 285.719C393.265 284.698 392.484 283.396 391.921 281.812C391.38 280.208 391.109 278.292 391.109 276.062V254.188H401.64V276.125C401.64 276.875 401.734 277.521 401.921 278.062C402.109 278.604 402.38 279.062 402.734 279.438C403.088 279.792 403.525 280.062 404.046 280.25C404.588 280.417 405.203 280.5 405.89 280.5C407.473 280.5 408.713 280.167 409.609 279.5C410.505 278.833 411.13 277.927 411.484 276.781C411.859 275.635 412.046 274.344 412.046 272.906ZM452.274 254.188V261.5H431.899V254.188H452.274ZM436.18 245.781H446.711V276.969C446.711 277.865 446.815 278.562 447.024 279.062C447.232 279.542 447.586 279.885 448.086 280.094C448.607 280.281 449.295 280.375 450.149 280.375C450.753 280.375 451.253 280.365 451.649 280.344C452.045 280.302 452.42 280.25 452.774 280.188V287.719C451.878 288.01 450.94 288.229 449.961 288.375C448.982 288.542 447.94 288.625 446.836 288.625C444.586 288.625 442.659 288.271 441.055 287.562C439.472 286.854 438.263 285.74 437.43 284.219C436.597 282.698 436.18 280.719 436.18 278.281V245.781Z" fill="#018749"/>
<defs>
<clipPath id="clip0_16_325">
<rect width="129" height="129" fill="white" transform="translate(205.5 45)"/>
</clipPath>
</defs>
</svg>
