<svg width="536" height="532" viewBox="0 0 536 532" fill="none" xmlns="http://www.w3.org/2000/svg">
<path d="M268.5 524.5L42.5 395.5V365.5L6.5 327V207.5H42.5V139L268.5 7L493.5 139V207.5H529.5V327L493.5 365.5V395.5L268.5 524.5Z" fill="white"/>
<path d="M529.5 327V207.5H493.5M529.5 327L493.5 365.5M529.5 327H493.5M6.5 327V207.5H42.5M6.5 327L42.5 365.5M6.5 327H42.5M42.5 365.5V395.5L268.5 524.5L493.5 395.5V365.5M42.5 365.5V327M493.5 365.5V327M42.5 327H493.5M42.5 207.5V139L268.5 7L493.5 139V207.5M42.5 207.5H493.5" stroke="#018749" stroke-width="12"/>
<path d="M199 450.115L268 489.5L336.695 450.115H199Z" fill="white" stroke="#018749" stroke-width="12"/>
<g clip-path="url(#clip0_16_325)">
<path d="M276.725 99.5151L294.015 74.7696L272.975 55.1497L243.592 65.7167L244.57 93.4089L276.725 99.5151Z" fill="#018749"/>
<path d="M265.523 149.655L281.346 166.136L308.985 154.337L313.499 129.917L286.062 126.539L265.523 149.655Z" fill="#018749"/>
<path d="M210.091 132.592L210.441 133.02C219.842 157.007 243.181 174 270.5 174C306.124 174 335 145.124 335 109.5C335 73.8776 306.124 45 270.5 45C234.878 45 206 73.8794 206 109.5C206 117.476 207.457 125.111 210.105 132.164L210.091 132.592ZM209.363 109.5C209.363 101.354 210.978 93.5823 213.883 86.4667L229.141 67.5362L233.095 61.1948C243.444 53.1629 256.419 48.363 270.502 48.363C270.841 48.363 271.174 48.3838 271.515 48.3875L278.338 50.9008L293.378 52.8199C303.008 56.7215 311.431 63.0018 317.906 70.9395L315.401 81.8449L325.282 109.711L331.595 111.31C330.626 144.188 303.606 170.635 270.502 170.635C254.02 170.635 239.053 164.069 228.045 153.428L239.912 143.236L228.587 114.046L210.869 107.943L210.459 120.959C209.75 117.248 209.363 113.419 209.363 109.5Z" fill="#018749"/>
</g>
<path d="M101.445 242.5V288H90.4763V242.5H101.445ZM128.601 242.5L110.976 265.562L100.664 276.844L98.6638 266.781L105.258 256.781L115.07 242.5H128.601ZM115.633 288L103.883 267.5L112.414 261.219L128.601 288H115.633ZM149.079 254.188V288H138.516V254.188H149.079ZM137.891 245.469C137.891 243.969 138.433 242.74 139.516 241.781C140.6 240.823 142.006 240.344 143.735 240.344C145.464 240.344 146.87 240.823 147.954 241.781C149.037 242.74 149.579 243.969 149.579 245.469C149.579 246.969 149.037 248.198 147.954 249.156C146.87 250.115 145.464 250.594 143.735 250.594C142.006 250.594 140.6 250.115 139.516 249.156C138.433 248.198 137.891 246.969 137.891 245.469ZM176.9 280.5C177.879 280.5 178.713 280.323 179.4 279.969C180.108 279.594 180.64 279.073 180.994 278.406C181.369 277.719 181.546 276.896 181.525 275.938H191.431C191.452 278.479 190.827 280.708 189.556 282.625C188.306 284.521 186.598 286 184.431 287.062C182.285 288.104 179.858 288.625 177.15 288.625C174.504 288.625 172.192 288.198 170.213 287.344C168.233 286.469 166.577 285.26 165.244 283.719C163.931 282.156 162.942 280.333 162.275 278.25C161.629 276.167 161.306 273.906 161.306 271.469V270.75C161.306 268.312 161.629 266.052 162.275 263.969C162.942 261.865 163.931 260.042 165.244 258.5C166.577 256.938 168.223 255.729 170.181 254.875C172.16 254 174.463 253.562 177.088 253.562C179.9 253.562 182.379 254.094 184.525 255.156C186.692 256.219 188.39 257.76 189.619 259.781C190.848 261.802 191.452 264.25 191.431 267.125H181.525C181.546 266.104 181.39 265.188 181.056 264.375C180.723 263.562 180.202 262.917 179.494 262.438C178.806 261.938 177.921 261.688 176.838 261.688C175.754 261.688 174.879 261.927 174.213 262.406C173.546 262.885 173.035 263.552 172.681 264.406C172.348 265.24 172.119 266.198 171.994 267.281C171.89 268.365 171.838 269.521 171.838 270.75V271.469C171.838 272.719 171.89 273.896 171.994 275C172.119 276.083 172.358 277.042 172.713 277.875C173.067 278.688 173.577 279.333 174.244 279.812C174.91 280.271 175.796 280.5 176.9 280.5ZM213.596 239.969V288H203.065V239.969H213.596ZM235.221 254.188L220.534 271.406L212.846 279.094L208.253 272.406L214.659 264.062L222.596 254.188H235.221ZM223.94 288L214.909 272.594L222.69 267.062L236.003 288H223.94ZM260.761 288.625C258.011 288.625 255.553 288.198 253.386 287.344C251.22 286.469 249.386 285.271 247.886 283.75C246.407 282.229 245.272 280.479 244.48 278.5C243.709 276.521 243.324 274.427 243.324 272.219V271.031C243.324 268.552 243.668 266.26 244.355 264.156C245.043 262.031 246.063 260.177 247.418 258.594C248.772 257.01 250.47 255.781 252.511 254.906C254.553 254.01 256.928 253.562 259.636 253.562C262.032 253.562 264.178 253.948 266.074 254.719C267.97 255.49 269.574 256.594 270.886 258.031C272.22 259.469 273.23 261.208 273.918 263.25C274.626 265.292 274.98 267.583 274.98 270.125V274.406H247.355V267.812H264.699V267C264.72 265.875 264.522 264.917 264.105 264.125C263.709 263.333 263.126 262.729 262.355 262.312C261.584 261.896 260.647 261.688 259.543 261.688C258.397 261.688 257.449 261.938 256.699 262.438C255.97 262.938 255.397 263.625 254.98 264.5C254.584 265.354 254.303 266.344 254.136 267.469C253.97 268.594 253.886 269.781 253.886 271.031V272.219C253.886 273.469 254.053 274.604 254.386 275.625C254.74 276.646 255.24 277.521 255.886 278.25C256.553 278.958 257.345 279.51 258.261 279.906C259.199 280.302 260.261 280.5 261.449 280.5C262.886 280.5 264.303 280.229 265.699 279.688C267.095 279.146 268.293 278.25 269.293 277L274.074 282.688C273.386 283.667 272.407 284.615 271.136 285.531C269.886 286.448 268.386 287.198 266.636 287.781C264.886 288.344 262.928 288.625 260.761 288.625ZM296.926 262.562V288H286.395V254.188H296.239L296.926 262.562ZM306.926 253.938L306.739 263.719C306.322 263.677 305.76 263.625 305.051 263.562C304.343 263.5 303.749 263.469 303.27 263.469C302.041 263.469 300.978 263.615 300.083 263.906C299.208 264.177 298.478 264.594 297.895 265.156C297.333 265.698 296.916 266.385 296.645 267.219C296.395 268.052 296.28 269.021 296.301 270.125L294.395 268.875C294.395 266.604 294.614 264.542 295.051 262.688C295.51 260.812 296.155 259.198 296.989 257.844C297.822 256.469 298.833 255.417 300.02 254.688C301.208 253.938 302.541 253.562 304.02 253.562C304.541 253.562 305.051 253.594 305.551 253.656C306.072 253.719 306.53 253.812 306.926 253.938ZM379.569 264.344V266.188C379.569 269.667 379.079 272.792 378.1 275.562C377.142 278.312 375.777 280.667 374.006 282.625C372.235 284.562 370.142 286.052 367.725 287.094C365.308 288.115 362.642 288.625 359.725 288.625C356.788 288.625 354.1 288.115 351.663 287.094C349.246 286.052 347.142 284.562 345.35 282.625C343.579 280.667 342.204 278.312 341.225 275.562C340.267 272.792 339.788 269.667 339.788 266.188V264.344C339.788 260.865 340.267 257.74 341.225 254.969C342.204 252.198 343.569 249.844 345.319 247.906C347.09 245.948 349.183 244.458 351.6 243.438C354.038 242.396 356.725 241.875 359.663 241.875C362.579 241.875 365.246 242.396 367.663 243.438C370.1 244.458 372.204 245.948 373.975 247.906C375.746 249.844 377.121 252.198 378.1 254.969C379.079 257.74 379.569 260.865 379.569 264.344ZM368.444 266.188V264.281C368.444 262.031 368.246 260.052 367.85 258.344C367.475 256.615 366.913 255.167 366.163 254C365.413 252.833 364.485 251.958 363.381 251.375C362.298 250.771 361.058 250.469 359.663 250.469C358.204 250.469 356.933 250.771 355.85 251.375C354.767 251.958 353.86 252.833 353.131 254C352.402 255.167 351.85 256.615 351.475 258.344C351.121 260.052 350.944 262.031 350.944 264.281V266.188C350.944 268.417 351.121 270.396 351.475 272.125C351.85 273.833 352.402 275.281 353.131 276.469C353.881 277.656 354.798 278.552 355.881 279.156C356.985 279.76 358.267 280.062 359.725 280.062C361.121 280.062 362.36 279.76 363.444 279.156C364.527 278.552 365.433 277.656 366.163 276.469C366.913 275.281 367.475 273.833 367.85 272.125C368.246 270.396 368.444 268.417 368.444 266.188ZM411.546 279.781V254.188H422.109V288H412.234L411.546 279.781ZM412.546 272.906L415.296 272.844C415.296 275.115 415.025 277.219 414.484 279.156C413.942 281.073 413.14 282.74 412.078 284.156C411.036 285.573 409.744 286.677 408.203 287.469C406.682 288.24 404.921 288.625 402.921 288.625C401.255 288.625 399.723 288.396 398.328 287.938C396.953 287.458 395.765 286.719 394.765 285.719C393.765 284.698 392.984 283.396 392.421 281.812C391.88 280.208 391.609 278.292 391.609 276.062V254.188H402.14V276.125C402.14 276.875 402.234 277.521 402.421 278.062C402.609 278.604 402.88 279.062 403.234 279.438C403.588 279.792 404.025 280.062 404.546 280.25C405.088 280.417 405.703 280.5 406.39 280.5C407.973 280.5 409.213 280.167 410.109 279.5C411.005 278.833 411.63 277.927 411.984 276.781C412.359 275.635 412.546 274.344 412.546 272.906ZM452.774 254.188V261.5H432.399V254.188H452.774ZM436.68 245.781H447.211V276.969C447.211 277.865 447.315 278.562 447.524 279.062C447.732 279.542 448.086 279.885 448.586 280.094C449.107 280.281 449.795 280.375 450.649 280.375C451.253 280.375 451.753 280.365 452.149 280.344C452.545 280.302 452.92 280.25 453.274 280.188V287.719C452.378 288.01 451.44 288.229 450.461 288.375C449.482 288.542 448.44 288.625 447.336 288.625C445.086 288.625 443.159 288.271 441.555 287.562C439.972 286.854 438.763 285.74 437.93 284.219C437.097 282.698 436.68 280.719 436.68 278.281V245.781Z" fill="#018749"/>
<defs>
<clipPath id="clip0_16_325">
<rect width="129" height="129" fill="white" transform="translate(206 45)"/>
</clipPath>
</defs>
</svg>
