<svg width="125" height="125" viewBox="0 0 125 125" fill="none" xmlns="http://www.w3.org/2000/svg">
<path d="M125 62.5199C125.007 52.1183 122.415 41.8797 117.462 32.7327C112.508 23.5857 105.348 15.8198 96.6315 10.1395C87.9152 4.45913 77.9182 1.04407 67.5473 0.204083C57.1764 -0.635908 46.7598 1.12575 37.2424 5.32925C27.725 9.53275 19.4079 16.0451 13.0457 24.2755C6.68344 32.506 2.4773 42.1941 0.808814 52.461C-0.859676 62.728 0.0622776 73.2489 3.49105 83.0695C6.91982 92.8901 12.7469 101.699 20.4437 108.699C20.5959 108.879 20.7731 109.037 20.97 109.168C32.399 119.365 47.1822 125 62.5009 125C77.8197 125 92.6026 119.364 104.031 109.167C104.227 109.037 104.404 108.879 104.555 108.7C110.997 102.854 116.144 95.7255 119.665 87.7723C123.186 79.8191 125.004 71.2172 125 62.5199ZM5 62.5199C4.99343 53.0697 7.31765 43.7636 11.7669 35.4256C16.2162 27.0875 22.6532 19.9747 30.5082 14.7168C38.3631 9.45886 47.3936 6.21808 56.8003 5.28133C66.207 4.34459 75.6996 5.74076 84.4377 9.34627C93.1759 12.9518 100.89 18.6554 106.897 25.9521C112.905 33.2489 117.019 41.9137 118.878 51.1795C120.736 60.4453 120.281 70.0262 117.552 79.0741C114.823 88.122 109.904 96.3576 103.232 103.052C97.0263 92.6629 87.0696 85.0502 75.4147 81.7835C80.8315 78.903 85.1292 74.2944 87.624 68.6908C90.1187 63.0872 90.6674 56.8105 89.1825 50.8593C87.6977 44.9081 84.2647 39.6242 79.4297 35.8483C74.5947 32.0723 68.6355 30.0212 62.5 30.0212C56.3645 30.0212 50.4052 32.0723 45.5703 35.8483C40.7353 39.6242 37.3023 44.9081 35.8174 50.8593C34.3326 56.8105 34.8812 63.0872 37.376 68.6908C39.8708 74.2944 44.1685 78.903 49.5853 81.7835C37.9305 85.0502 27.9738 92.6628 21.7679 103.052C16.4473 97.7275 12.2279 91.4077 9.35087 84.4532C6.4738 77.4987 4.99537 70.0457 5 62.5199ZM62.5 80.0143C58.0499 80.0143 53.6998 78.6951 49.9997 76.2236C46.2996 73.752 43.4157 70.2391 41.7127 66.1291C40.0097 62.0191 39.5642 57.4965 40.4323 53.1333C41.3005 48.7702 43.4434 44.7623 46.5901 41.6166C49.7368 38.471 53.7459 36.3287 58.1105 35.4608C62.475 34.5929 66.999 35.0384 71.1104 36.7408C75.2217 38.4432 78.7357 41.3262 81.2081 45.0251C83.6804 48.7241 85 53.0728 85 57.5215C84.9933 63.4849 82.6206 69.2021 78.4025 73.4189C74.1844 77.6357 68.4653 80.0076 62.5 80.0143ZM25.5405 106.516C29.2509 99.9871 34.6259 94.5573 41.1182 90.78C47.6105 87.0027 54.9881 85.0127 62.4999 85.0127C70.0117 85.0128 77.3894 87.0028 83.8816 90.7802C90.3738 94.5576 95.7488 99.9874 99.4592 106.517C89.1142 115.226 76.0243 120.002 62.4998 120.002C48.9752 120.002 35.8854 115.226 25.5405 106.516Z" fill="white"/>
</svg>
